<?xml version="1.0" encoding="utf-8"?>
<!-- Generator: Adobe Illustrator 16.0.0, SVG Export Plug-In . SVG Version: 6.00 Build 0)  -->
<!DOCTYPE svg PUBLIC "-//W3C//DTD SVG 1.1//EN" "http://www.w3.org/Graphics/SVG/1.1/DTD/svg11.dtd">
<svg version="1.1" id="Layer_1" xmlns="http://www.w3.org/2000/svg" xmlns:xlink="http://www.w3.org/1999/xlink" x="0px" y="0px"
	 width="321px" height="89.184px" viewBox="0 0 321 89.184" enable-background="new 0 0 321 89.184" xml:space="preserve">
<path fill="#FFFFFF" d="M29.524,51.452l-9.333-5.227v26.132h-8.959V14.047h27.027v58.311h-8.735V51.452z M20.191,36.893l9.333,5.003
	V21.736h-9.333V36.893z"/>
<path fill="#FFFFFF" d="M53.492,64.593h11.05V14.047h8.885v58.311l-28.819-0.075V14.047h8.885V64.593z"/>
<path fill="#FFFFFF" d="M90.077,72.208V21.736H76.041v-7.689h36.958v7.689H98.962v50.472H90.077z"/>
<path fill="#FFFFFF" d="M210.025,31.741l-10.229-7.615v48.231h-8.885V14.047h8.288l15.306,10.975l14.559-10.975h8.288v58.311h-8.885
	V24.648l-9.557,7.019v40.69h-8.885V31.741z"/>
<path fill="#FFFFFF" d="M261.991,51.452l-9.333-5.227v26.132h-8.959V14.047h27.027v58.311h-8.735V51.452z M252.659,36.893
	l9.333,5.003V21.736h-9.333V36.893z"/>
<path fill="#FFFFFF" d="M287.378,72.208V21.736h-14.036v-7.689h36.957v7.689h-14.036v50.472H287.378z"/>
<path fill="#08deff" d="M182.104,42.315l-3.255-0.734c-8.23-1.86-11.279-9.218-6.773-16.354l1.781-2.82
	c4.505-7.135,2.354-9.287-4.78-4.781l-2.821,1.78c-7.134,4.506-14.493,1.458-16.352-6.773l-0.735-3.254
	c-1.859-8.231-4.902-8.231-6.761,0l-0.735,3.254c-1.859,8.231-9.218,11.279-16.354,6.773l-2.82-1.78
	c-7.135-4.506-9.286-2.354-4.78,4.781l1.781,2.82c4.505,7.135,1.457,14.494-6.774,16.354l-3.254,0.734
	c-8.231,1.859-8.231,4.902,0,6.762l3.254,0.734c8.231,1.859,11.28,9.218,6.774,16.353l-1.781,2.82
	c-4.505,7.135-2.355,9.287,4.78,4.781l2.82-1.781c7.135-4.505,14.494-1.458,16.354,6.773l0.735,3.254
	c1.859,8.231,4.902,8.231,6.761,0l0.735-3.254c1.859-8.23,9.218-11.278,16.352-6.773l2.821,1.781
	c7.134,4.506,9.286,2.354,4.78-4.781l-1.781-2.82c-4.505-7.135-1.457-14.494,6.773-16.353l3.255-0.734
	C190.333,47.217,190.333,44.174,182.104,42.315z M145.788,53.111c-4.096,0-7.416-3.32-7.416-7.415s3.319-7.415,7.416-7.415
	c4.095,0,7.414,3.32,7.414,7.415S149.882,53.111,145.788,53.111z"/>
</svg>
